<svg xmlns="http://www.w3.org/2000/svg" viewBox="0 0 64 64" fill="none" role="img" aria-label="Unio Demo">
  <defs>
    <linearGradient id="hxc-g" x1="11" y1="9" x2="53" y2="57" gradientUnits="userSpaceOnUse">
      <stop offset="0"    stop-color="#C2E8FF"/>
      <stop offset="0.38" stop-color="#4A84FF"/>
      <stop offset="1"    stop-color="#1236A8"/>
    </linearGradient>
    <linearGradient id="hxc-d" x1="54" y1="10" x2="10" y2="56" gradientUnits="userSpaceOnUse">
      <stop stop-color="#000" stop-opacity="0"/>
      <stop offset="1" stop-color="#000" stop-opacity="0.28"/>
    </linearGradient>
    <radialGradient id="hxc-s" cx="21" cy="17" r="17" gradientUnits="userSpaceOnUse">
      <stop stop-color="#fff" stop-opacity="0.50"/>
      <stop offset="0.5" stop-color="#fff" stop-opacity="0.12"/>
      <stop offset="1"   stop-color="#fff" stop-opacity="0"/>
    </radialGradient>
    <clipPath id="hxc-c">
      <path d="M26 12 C20 11 13 16 11 22 C9 28 10 35 12 40 C14 45 17 49 21 52 C25 55 30 56 35 55 C40 54 45 51 49 47 C53 43 55 37 55 29 C55 21 52 14 47 11 C42 8 36 9 32 10 C29 11 27 13 26 12 Z"/>
    </clipPath>
  </defs>

  <ellipse cx="33" cy="33" rx="27" ry="25" fill="#3A75FF" opacity="0.08"/>

  <path d="M26 12 C20 11 13 16 11 22 C9 28 10 35 12 40 C14 45 17 49 21 52 C25 55 30 56 35 55 C40 54 45 51 49 47 C53 43 55 37 55 29 C55 21 52 14 47 11 C42 8 36 9 32 10 C29 11 27 13 26 12 Z"
        fill="url(#hxc-g)" stroke="rgba(14,40,160,0.32)" stroke-width="0.9"/>
  <path d="M26 12 C20 11 13 16 11 22 C9 28 10 35 12 40 C14 45 17 49 21 52 C25 55 30 56 35 55 C40 54 45 51 49 47 C53 43 55 37 55 29 C55 21 52 14 47 11 C42 8 36 9 32 10 C29 11 27 13 26 12 Z" fill="url(#hxc-d)"/>
  <path d="M26 12 C20 11 13 16 11 22 C9 28 10 35 12 40 C14 45 17 49 21 52 C25 55 30 56 35 55 C40 54 45 51 49 47 C53 43 55 37 55 29 C55 21 52 14 47 11 C42 8 36 9 32 10 C29 11 27 13 26 12 Z" fill="url(#hxc-s)"/>

  <g clip-path="url(#hxc-c)" fill="none" stroke-linecap="round">
    <path d="M11 36 C16 31 23 29 30 30 C37 31 43 30 52 35" stroke="rgba(0,5,45,0.42)" stroke-width="2.6"/>
    <path d="M34 12 C33 19 33 27 34 33 C35 40 35 47 36 56" stroke="rgba(0,5,45,0.32)" stroke-width="2.2"/>
    <path d="M13 24 C17 20 23 18 30 19"                    stroke="rgba(255,255,255,0.26)" stroke-width="1.5"/>
    <path d="M48 13 C51 20 53 29 51 37"                    stroke="rgba(255,255,255,0.22)" stroke-width="1.4"/>
    <path d="M29 13 C28 20 28 28 29 34"                    stroke="rgba(255,255,255,0.14)" stroke-width="1.0"/>
  </g>

  <line x1="51" y1="13" x2="59" y2="6"  stroke="#B2D9FF" stroke-width="1.6" stroke-linecap="round" opacity="0.88"/>
  <circle cx="51" cy="13" r="2.2" fill="none" stroke="#C6E6FF" stroke-width="1.2" opacity="0.85"/>
  <circle cx="51" cy="13" r="0.9" fill="#DFF3FF" opacity="0.95"/>
  <circle cx="59" cy="6"  r="3.4" fill="#90C4FF"/>
  <circle cx="59" cy="6"  r="1.8" fill="#C6E4FF" opacity="0.82"/>
  <circle cx="59" cy="6"  r="0.8" fill="#EEF9FF" opacity="0.95"/>

  <line x1="55" y1="31" x2="62" y2="31" stroke="#B2D9FF" stroke-width="1.6" stroke-linecap="round" opacity="0.88"/>
  <circle cx="55" cy="31" r="2.0" fill="none" stroke="#C4E4FF" stroke-width="1.1" opacity="0.85"/>
  <circle cx="55" cy="31" r="0.8" fill="#DCEFFF" opacity="0.95"/>
  <circle cx="62" cy="31" r="3.0" fill="#7AB6FF"/>
  <circle cx="62" cy="31" r="1.5" fill="#BCDEFF" opacity="0.80"/>
  <circle cx="62" cy="31" r="0.7" fill="#ECFAFF" opacity="0.95"/>

  <line x1="17" y1="51" x2="8" y2="58"  stroke="#AACFFF" stroke-width="1.4" stroke-linecap="round" opacity="0.82"/>
  <circle cx="17" cy="51" r="1.8" fill="none" stroke="#BEDDFF" stroke-width="1.0" opacity="0.80"/>
  <circle cx="17" cy="51" r="0.7" fill="#D2EAFF" opacity="0.90"/>
  <circle cx="8"  cy="58" r="2.7" fill="#68A8FF"/>
  <circle cx="8"  cy="58" r="1.4" fill="#B0D4FF" opacity="0.78"/>
  <circle cx="8"  cy="58" r="0.6" fill="#E6F6FF" opacity="0.90"/>
</svg>
